<?xml version="1.0" encoding="utf-8"?>
<!-- Generator: Adobe Illustrator 27.5.0, SVG Export Plug-In . SVG Version: 6.00 Build 0)  -->
<svg version="1.1" xmlns="http://www.w3.org/2000/svg" xmlns:xlink="http://www.w3.org/1999/xlink" x="0px" y="0px"
	 viewBox="0 0 4000 2000" style="enable-background:new 0 0 4000 2000;" xml:space="preserve">
<g id="BG">
	<rect style="fill:#FFFFFF;" width="4000" height="2000"/>
</g>
<g id="window">
	<rect x="367.766" y="304.37" style="fill:#AAE0FF;" width="1415.06" height="1256.556"/>
	<rect x="2190.371" y="304.37" style="fill:#AAE0FF;" width="1368.858" height="1256.556"/>
</g>
<g id="hacker">
	<g id="Hacker">
		<g>
			<g>
				<g>
					<g>
						<path style="fill:#153566;" d="M3139.016,1411.755c0,0-27.447,3.282-70.192,6.599c-57.453,4.462-142.441,8.99-226.359,5.995
							c-35.79-1.231-71.542-3.91-104.727-8.477c-76.286,3.431-208.036-262.612-163.619-308.899l65.406-45.801
							c51.511,13.022,141.737,164.692,145.876,203.833l180.573-59.567C3158.447,1086.182,3211.934,1351.204,3139.016,1411.755z"/>
						<path style="fill:#153566;" d="M2573.174,1135.563c0,0-21.138-6.676-18.01-24.134c3.128-17.457,80.972-81.02,101.603-48.163
							C2670.206,1084.669,2595.763,1140.598,2573.174,1135.563z"/>
					</g>
					<path style="fill:#F7A594;" d="M2573.13,1105.752l-20.281-35.425c-16.169-26.279,34.893-64.961,53.126-47.123l24.967,37.303
						C2641.817,1072.181,2586.769,1115.392,2573.13,1105.752z"/>
					<path style="fill:#0E0E0E;" d="M3068.823,1418.354c-57.453,4.462-142.441,8.99-226.359,5.995
						c45.344-3.443,162.249-81.981,193.425-205.651C3079.103,1338.142,3057.796,1376.193,3068.823,1418.354z"/>
				</g>
				<g>
					<g>
						<path style="fill:#F7A594;" d="M2551.081,1076.617c-33.136,18.073-102.582-19.869-136.22-86.141
							c0,0,22.599-5.745,44.684-6.024c0.824-11.58,25.289-19.056,36.901-20.333c31.115-3.423,73.21,25.517,100.545,47.619
							C2654.187,1077.295,2551.081,1076.617,2551.081,1076.617z"/>
					</g>
					<path style="fill:#DE3C0F;" d="M2467.278,998.007c11.514,7.073,25.152,4.345,36.616,1.338
						c-6.756,24.213,16.162,27.331,36.817,41.529c0,0-49.202,7.688-64.264-8.05
						C2461.386,1017.086,2467.278,998.007,2467.278,998.007z"/>
					<g>
						<path style="fill:#4D93FF;" d="M2472.109,1100.945h-200.182c-4.214,0-7.631-3.416-7.631-7.631V979.732
							c0-4.214,3.417-7.631,7.631-7.631l200.182,0c4.214,0,7.631,3.417,7.631,7.631v113.582
							C2479.74,1097.528,2476.323,1100.945,2472.109,1100.945z"/>
						<rect x="2264.296" y="996.434" style="fill:#0046B3;" width="215.443" height="22.233"/>
						<path style="fill:#D1F5FF;" d="M2313.645,1076.225h-31.677c-2.014,0-3.646,1.632-3.646,3.646l0,0
							c0,2.014,1.632,3.646,3.646,3.646h31.677c2.013,0,3.646-1.632,3.646-3.646l0,0
							C2317.291,1077.857,2315.658,1076.225,2313.645,1076.225z"/>
						<path style="fill:#D1F5FF;" d="M2362.358,1076.225h-31.677c-2.014,0-3.646,1.632-3.646,3.646l0,0
							c0,2.014,1.632,3.646,3.646,3.646h31.677c2.013,0,3.646-1.632,3.646-3.646l0,0
							C2366.004,1077.857,2364.371,1076.225,2362.358,1076.225z"/>
						<path style="fill:#D1F5FF;" d="M2411.071,1076.225h-31.677c-2.013,0-3.646,1.632-3.646,3.646l0,0
							c0,2.014,1.632,3.646,3.646,3.646l31.677,0c2.014,0,3.646-1.632,3.646-3.646l0,0
							C2414.717,1077.857,2413.085,1076.225,2411.071,1076.225z"/>
						<path style="fill:#D1F5FF;" d="M2459.784,1076.225h-31.677c-2.014,0-3.646,1.632-3.646,3.646l0,0
							c0,2.014,1.632,3.646,3.646,3.646h31.677c2.014,0,3.646-1.632,3.646-3.646v0
							C2463.43,1077.857,2461.798,1076.225,2459.784,1076.225z"/>
						<path style="fill:#D1F5FF;" d="M2280.508,978.64L2280.508,978.64c-2.222,0-4.024,1.802-4.024,4.024v1.414
							c0,2.222,1.802,4.024,4.024,4.024l0,0c2.222,0,4.024-1.802,4.024-4.024v-1.414
							C2284.532,980.442,2282.731,978.64,2280.508,978.64z"/>
						<path style="fill:#D1F5FF;" d="M2289.178,983.371L2289.178,983.371c0,2.613,2.118,4.731,4.731,4.731h16.767
							c2.613,0,4.731-2.118,4.731-4.731l0,0c0-2.613-2.118-4.731-4.731-4.731h-16.767
							C2291.296,978.64,2289.178,980.758,2289.178,983.371z"/>
						<path style="fill:#FFBD73;" d="M2286.978,1030.626h21.656c3.471,0,6.285,2.814,6.285,6.285v18.67
							c0,3.471-2.814,6.285-6.285,6.285h-21.656c-3.471,0-6.284-2.814-6.284-6.285l0-18.67
							C2280.694,1033.44,2283.507,1030.626,2286.978,1030.626z"/>
					</g>
					<path style="fill:#F7A594;" d="M2482.807,1063.572l-30.292-25.353c-16.492-8.3-30.664-17.433-37.653-29.166
						c0,0,3.264-20.333,29.12-10.041c16.746,6.666,20.038,14.447,34.947,21.3c14.908,6.853,52.667-8.309,65.827,8.489
						C2567.566,1057.92,2539.038,1105.783,2482.807,1063.572z"/>
					<path style="fill:#DE3C0F;" d="M2500.827,1024.479c-14.912,0-28.548-3.887-29.406-4.136l-0.492-0.144l-0.339-0.385
						c-0.254-0.288-25.668-28.766-46.69-20.428c-0.909,0.361-1.931-0.084-2.289-0.989c-0.359-0.905,0.084-1.93,0.988-2.288
						c22.156-8.788,46.893,17.249,50.282,20.979c3.965,1.068,31.718,8.073,49.181-0.037c0.886-0.412,1.933-0.028,2.342,0.855
						c0.41,0.884,0.027,1.932-0.855,2.342C2516.714,1023.424,2508.597,1024.479,2500.827,1024.479z"/>
				</g>
			</g>
			<path style="fill:#153566;" d="M3608.853,1752.376h-526.542c-9.673-69.111-28.382-161.132-44.037-252.389
				c-20.999-122.057-36.781-243.097-19.346-307.37c49.385-182.387,328.245-104.495,417.848,64.019
				C3505.249,1394.094,3587.854,1583.608,3608.853,1752.376z"/>
		</g>
		<g>
			<path style="fill:#F7A594;" d="M2918.988,1110.395c-16.094,22.646-22.666,47.593-7.596,63.261l49.726,46.141l98.455,90.969
				c30.62,29.933,136.389-107.777,105.646-137.868l-141.291-106.4C2999.099,1040.425,2945.646,1072.441,2918.988,1110.395z"/>
			<path style="fill:#153566;" d="M3100.961,1124.525c0,0,4.465,26.158-55.263,74.627c-50.145,40.693-68.055,35.755-68.055,35.755
				s-8.439,15.011,15.352,33.186c26.671,47.364,59.661,86.956,113.131,85.414c56.205-1.62,166.079-118.907,98.8-174.563
				c-36.467-18.34-59.466-32.232-59.466-32.232S3127.156,1117.737,3100.961,1124.525z"/>
		</g>
		<g>
			<g>
				<g>
					<path style="fill:#F7A594;" d="M2711.445,957.25c-30.618,101.258,33.115,239.619,121.337,266.296
						c88.223,26.677,167.527-68.433,198.145-169.691c30.618-101.258-16.079-204.969-104.302-231.646
						C2838.403,795.532,2742.063,855.992,2711.445,957.25z"/>
					<path style="fill:#0E0E0E;" d="M3032.265,1045.446c-133.733-31.467-255.972-46.932-323.825-82.924
						c0,0-24.172,47.043-5.56,78.632c145.575,78.598,325.996,14.692,325.996,14.692L3032.265,1045.446z"/>
				</g>
			</g>
			<path style="fill:#F7A594;" d="M2977.538,1085.076c-11.207,19.111-5.463,33.614,15.7,39.6
				c16.809,4.754,38.799-4.399,50.005-23.51c11.207-19.111,5.646-36.862-9.422-45.698
				C3018.753,1046.632,2988.745,1065.965,2977.538,1085.076z"/>
			<path style="fill:#803221;" d="M2800.359,1123.154c-4.623,0-8.65-1.189-11.739-2.978c-6.589-3.813-9.912-10.69-8.89-18.396
				c0.685-5.153,2.959-9.144,6.76-11.859c8.226-5.876,20.635-3.473,21.159-3.367c1.223,0.246,2.015,1.436,1.77,2.658
				c-0.246,1.222-1.432,2.011-2.657,1.77c-0.204-0.04-11.071-2.096-17.659,2.622c-2.774,1.988-4.376,4.857-4.896,8.771
				c-0.786,5.92,1.646,10.983,6.675,13.894c5.718,3.31,16.437,4.08,27.832-4.644c0.989-0.759,2.405-0.57,3.165,0.421
				c0.758,0.99,0.569,2.407-0.421,3.165C2813.909,1120.989,2806.593,1123.154,2800.359,1123.154z"/>
			<path style="fill:#FFFFFF;" d="M2827.749,1033.164c-3.96,12.107,4.221,25.647,18.273,30.243
				c14.052,4.596,28.653-1.492,32.613-13.599c3.96-12.107-4.221-25.647-18.272-30.243
				C2849.136,1023.7,2841.26,1027.953,2827.749,1033.164z"/>
			<path style="fill:#FFFFFF;" d="M2714.664,998.657c-3.943,12.088,1.125,25.511,13.58,30.771
				c12.456,5.26,24.338-2.089,29.294-13.823c-5.501-8.951-7.997-11.596-15.202-23.9
				C2735.057,979.274,2719.514,983.79,2714.664,998.657z"/>
			<path style="fill:#0E0E0E;" d="M2843.413,1046.126c0.338,6.424,3.557,11.477,7.19,11.286c3.633-0.191,6.305-5.554,5.967-11.978
				c-0.338-6.424-3.557-11.477-7.19-11.286C2845.747,1034.339,2843.075,1039.702,2843.413,1046.126z"/>
			<path style="fill:#0E0E0E;" d="M2728.381,1015.007c0.681,6.397,4.167,11.27,7.784,10.885c3.618-0.385,5.998-5.883,5.317-12.28
				c-0.681-6.397-4.167-11.27-7.784-10.885C2730.08,1003.112,2727.7,1008.61,2728.381,1015.007z"/>
			<path style="fill:#FFFFFF;" d="M2911.427,1134.846c0,0-49.18,33.709-110.731,10.447c12.748,49.212,37.13,54.33,37.13,54.33
				S2889.573,1188.799,2911.427,1134.846z"/>
			<path style="fill:#BD4A31;" d="M2924.58,1146.801c-0.452,0-0.909-0.136-1.306-0.417c-1.017-0.723-1.255-2.132-0.533-3.148
				c1.777-2.501,2.312-8.095-0.199-13.535c-1.513-3.278-5.318-8.889-13.81-9.64c-1.241-0.11-2.159-1.206-2.05-2.448
				c0.11-1.242,1.214-2.16,2.448-2.05c7.857,0.695,14.24,5.158,17.511,12.245c2.922,6.33,2.831,13.75-0.219,18.043
				C2925.982,1146.47,2925.286,1146.801,2924.58,1146.801z"/>
			<path style="fill:#BD4A31;" d="M2926.518,1002.596c0,0-24.699,12.626-47.995-6.202c-23.296-18.828-33.218-41.986-33.218-41.986
				s-31.279,31.365-69.729,2.415c-19.571-14.735-10.366-37.608-10.366-37.608c-59.153,32.882-147.469,2.286-133.479-56.727
				c30.804-57.011,78.466-15.46,90.214,6.914C2734.979,869.712,2856.061,901.073,2926.518,1002.596z"/>
			<path style="fill:#153566;" d="M2976.496,1238.523c0,0,34.938-77.19-9.309-173.992
				c-34.005-74.393-116.895-144.764-245.65-195.142c103.423-140.434,267.316-127.547,267.316-127.547
				c144.657,19.054,166.498,197.075,187.086,300.411c70.468,16.767,38.023,59.32,31.283,62.305
				c-100.638,44.568-158.055,113.524-180.353,141.514C3012.718,1263.834,2981.759,1262.593,2976.496,1238.523z"/>
		</g>
		<g>
			<g>
				<path style="fill:#153566;" d="M3008.413,1323.385l-18.978,192.244c-35.634-16.708-207.713-38.471-266.982,5.171l5.317,79.659
					c16.642,61.945,284.241,116.109,343.271,67.67c149.216-82.527,202.951-389.233,202.951-389.233
					C3265.172,1181.527,3043.243,1115.459,3008.413,1323.385z"/>
				<path style="fill:#153566;" d="M2751.722,1616.057c0,0-16.659,14.625-29.972,2.907c-13.314-11.718-27.371-111.228,11.42-111.859
					C2758.439,1506.694,2767.728,1599.34,2751.722,1616.057z"/>
			</g>
			<path style="fill:#F7A594;" d="M2727.54,1603.607l-60.215-2.146c-30.408-5.231-1.434-78.564,24.003-80.46l38.134,4.243
				C2741.711,1535.139,2739.239,1591.791,2727.54,1603.607z"/>
			<g>
				<g>
					<path style="fill:#F7A594;" d="M2680.916,1598.267c0,0-5.736,3.317-14.101,1.988l-0.137,0.001
						c-6.17-1.064-13.723-4.588-21.443-13.865c-0.135-0.136-0.135-0.274-0.135-0.274c-9.787-11.868-19.761-33.053-27.208-70.141
						c-40.1-45.419-9.295-62.16,7.591-50.707c52.984,35.935,64.782,43.151,79.807,52.656
						C2718.056,1526,2720.707,1582.857,2680.916,1598.267z"/>
					<path style="fill:#DE3C0F;" d="M2667.325,1601.461c-7.902-2.918-17.342-7.005-22.091-15.071
						c-0.135-0.136-0.135-0.274-0.135-0.274s12.398-5.066,21.578-31.979C2666.677,1554.138,2654.935,1594.846,2667.325,1601.461z"/>
				</g>
				<path style="fill:#F7A594;" d="M2631.573,1469.113c0,0-14.423-8.337-54.474-38.49c-11.848,8.223-11.426,36.929,14.788,49.19
					C2609.829,1488.206,2628.619,1480.831,2631.573,1469.113z"/>
				<g>
					<defs>
						<path id="XMLID_5_" d="M2603.517,1483.123c-36.16-3.466-35.48,53.302-11.311,87.088c36.983,51.698,66.769,4.718,72.638-16.106
							C2675.582,1516.009,2647.825,1487.37,2603.517,1483.123z"/>
					</defs>
					<use xlink:href="#XMLID_5_"  style="overflow:visible;fill:#F7A594;"/>
					<clipPath id="XMLID_00000078764095193356605320000016782308546587631806_">
						<use xlink:href="#XMLID_5_"  style="overflow:visible;"/>
					</clipPath>
					<path style="clip-path:url(#XMLID_00000078764095193356605320000016782308546587631806_);fill:#DE3C0F;" d="M2637.89,1593.831
						c-0.116,0-0.233-0.014-0.352-0.041c-4.052-0.951-7.454-4.364-9.84-9.871c-5.423-12.519-5.205-36.57,4.604-53.601
						c0.424-0.735,1.363-0.986,2.097-0.563c0.734,0.423,0.987,1.361,0.563,2.097c-9.332,16.203-9.574,39.01-4.446,50.847
						c1.384,3.193,3.847,7.191,7.724,8.102c0.826,0.194,1.338,1.021,1.145,1.846
						C2639.218,1593.354,2638.587,1593.831,2637.89,1593.831z"/>
					<path style="clip-path:url(#XMLID_00000078764095193356605320000016782308546587631806_);fill:#DE3C0F;" d="M2621.162,1600.103
						c-0.26,0-0.522-0.065-0.764-0.203c-29.161-16.739-35.295-57.373-22.563-83.371c0.373-0.762,1.291-1.076,2.055-0.703
						c0.761,0.373,1.076,1.293,0.703,2.055c-12.135,24.776-6.357,63.46,21.334,79.355c0.735,0.423,0.989,1.361,0.567,2.097
						C2622.211,1599.826,2621.693,1600.103,2621.162,1600.103z"/>
				</g>
			</g>
			<path style="fill:#0E0E0E;" d="M2999.169,1420.255c-0.104,0-0.21-0.006-0.316-0.016c-1.749-0.173-3.026-1.73-2.854-3.479
				c1.313-13.313,2.188-26.759,3.034-39.763c5.215-80.172,10.141-155.897,112.956-212.55c1.537-0.845,3.474-0.288,4.322,1.252
				c0.848,1.539,0.288,3.474-1.252,4.322c-99.762,54.97-104.578,129.006-109.676,207.389c-0.85,13.056-1.728,26.556-3.052,39.975
				C3002.169,1419.027,3000.785,1420.255,2999.169,1420.255z"/>
		</g>
	</g>
	<g id="box">
		<g>
			<g>
				<path style="fill:#1150B3;" d="M3168.881,1427.509l-3.28-11.471c-1.489-5.209-6.992-8.622-12.294-7.621l-102.183,19.283
					c-5.302,1-8.392,6.035-6.902,11.244l57.977,202.774l264.316-49.878l-54.697-191.303L3168.881,1427.509z"/>
				<polygon style="fill:#FFFFFF;" points="3324.802,1405.431 3065.617,1454.341 3102.2,1641.718 3365.227,1592.083 				"/>
				<path style="fill:#40B0FF;" d="M3366.516,1591.839l-264.316,49.878l-24.002-187.334c-0.702-5.48,2.83-10.295,8.312-11.329
					l241.895-45.647c6.783-1.28,13.671,3.672,14.54,10.453L3366.516,1591.839z"/>
			</g>
		</g>
		<g>
			<g>
				
					<rect x="3214.286" y="1468.487" transform="matrix(-0.0634 0.998 -0.998 -0.0634 5071.9775 -1665.7562)" style="fill:#CFD9E8;" width="206.621" height="157.027"/>
				
					<rect x="3224.067" y="1478.133" transform="matrix(-0.0634 0.998 -0.998 -0.0634 5071.9785 -1665.7556)" style="fill:#086CD3;" width="187.059" height="137.735"/>
				<polygon style="fill:#BCC5D3;" points="3263.512,1461.824 3255.518,1587.56 3326.023,1523.202 				"/>
				<polygon style="fill:#BCC5D3;" points="3259.877,1518.997 3253.16,1624.643 3311.464,1570.945 				"/>
				
					<ellipse transform="matrix(0.886 -0.4637 0.4637 0.886 -344.3917 1726.2783)" style="fill:#BCC5D3;" cx="3338.084" cy="1563.438" rx="14.59" ry="14.59"/>
			</g>
			<g>
				<g>
					
						<rect x="3292.253" y="1464.976" transform="matrix(-0.5365 0.8439 -0.8439 -0.5365 6519.9072 -493.8354)" style="fill:#E3EEFF;" width="206.621" height="157.027"/>
					
						<rect x="3302.034" y="1474.622" transform="matrix(-0.5365 0.8439 -0.8439 -0.5365 6519.9072 -493.8354)" style="fill:#3397FF;" width="187.059" height="137.735"/>
					<polygon style="fill:#E3EEFF;" points="3389.221,1442.792 3321.624,1549.112 3414.416,1526.697 					"/>
					<polygon style="fill:#E3EEFF;" points="3358.484,1491.136 3301.687,1580.469 3378.652,1561.515 					"/>
					
						<ellipse transform="matrix(0.9761 -0.2173 0.2173 0.9761 -259.3232 777.6129)" style="fill:#E3EEFF;" cx="3405.594" cy="1567.766" rx="14.59" ry="14.59"/>
				</g>
			</g>
		</g>
		<rect x="3133.833" y="1582.789" style="fill:#EA7B00;" width="372.724" height="162.299"/>
		<rect x="3037.783" y="1582.789" style="fill:#B35E00;" width="96.05" height="162.299"/>
		<polygon style="fill:#CC6B00;" points="3506.557,1582.789 3133.833,1582.789 3198.366,1519.461 3571.09,1519.461 		"/>
		<polygon style="fill:#EA7B00;" points="3082.544,1673.765 2986.495,1673.765 3037.783,1582.789 3133.833,1582.789 		"/>
		<rect x="3406.45" y="1697.563" style="fill:#FF9E33;" width="83.112" height="36.412"/>
	</g>
</g>
<g id="male">
	<g>
		<path style="fill:#007880;" d="M1381.015,1453.532c-25.2,19.982-61.603,26.218-103.219,23.926
			c-34.877-1.908-73.314-9.928-112.003-21.254c-129.821-37.673-261.298-111.494-261.298-111.494
			c-81.076-146.495,54.726-272.498,187.732-230.751c56.637,35.509,92.53,70.765,121.931,116.967
			c-35.256-67.966-79.041-162.914-41.874-208.48c24.563-24.309,64.017-57.782,121.291-49.636
			C1361.796,995.212,1482.071,1373.603,1381.015,1453.532z"/>
		<g>
			<path style="fill:#FF9882;" d="M1179.823,1038.694c-1.016-0.127-2.163-0.382-3.306-0.637c0,0-6.746-2.292-17.438-7.51
				c-20.62-10.054-55.621-30.8-82.602-65.291c3.946-25.075,31.182-14.639,45.438-1.784c6.746,6.11,13.871,8.147,21.509,8.275
				c11.708,0.127,24.436-4.583,37.8-6.111c7.128-0.89,14.508-0.763,22.019,1.273
				C1233.409,975.309,1232.9,1048.112,1179.823,1038.694z"/>
			<path style="fill:#D97661;" d="M1179.823,1038.694c-3.306-1.529-5.978-3.564-7.762-6.238l-5.599-11.837l-23.038-48.872
				l-44.929-95.33c-24.309-46.838,9.928-62.494,39.963-2.929c-1.271-17.055,13.492-32.455,34.749-2.672
				c-4.201-19.219,16.161-26.6,34.619-2.547c-1.019-14.763,19.98-17.308,31.819,6.236l9.163,32.711l19.856,70.639
				C1282.791,1026.474,1207.954,1051.802,1179.823,1038.694z"/>
			<path style="fill:#F0836C;" d="M1248.809,907.217c-16.021-6.033-37.143-0.155-47.975,21.717
				c-8.413,16.988-21.319,83.389-41.755,101.612c-20.62-10.054-55.621-30.8-82.602-65.291c10.157-39.127,45.49,6.979,66.947,6.491
				l-44.929-95.33c-24.309-46.838,9.928-62.494,39.963-2.929c-1.271-17.055,13.492-32.455,34.749-2.672
				c-4.201-19.219,16.161-26.6,34.619-2.547c-1.019-14.763,19.98-17.308,31.819,6.236L1248.809,907.217z"/>
			<path style="fill:#BD4A31;" d="M1201.822,908.334c-8.288,0-16.756-9.455-21.705-16.134c0.235,2.372,0.075,5.003-0.994,7.442
				c-1.475,3.364-4.384,5.723-8.645,7.009c-13.804,4.167-23.38-12.426-23.781-13.135c-0.346-0.611-0.131-1.387,0.48-1.734
				c0.61-0.347,1.388-0.131,1.734,0.479c0.089,0.156,8.982,15.531,20.832,11.953c3.511-1.06,5.881-2.94,7.045-5.586
				c2.447-5.565-1.018-12.879-1.053-12.953c-0.296-0.614-0.056-1.353,0.545-1.675c0.601-0.32,1.348-0.114,1.696,0.472
				c0.152,0.256,15.293,25.504,26.852,20.72c11.432-4.733,4.781-22.688,4.713-22.869c-0.247-0.651,0.076-1.38,0.725-1.636
				c0.648-0.256,1.382,0.059,1.644,0.705c0.084,0.206,8.596,20.683,22.975,18.182c2.435-0.423,4.118-1.505,5.146-3.307
				c2.878-5.043-0.398-13.856-0.432-13.944c-0.248-0.657,0.083-1.392,0.74-1.641c0.657-0.247,1.392,0.082,1.641,0.738
				c0.154,0.406,3.734,10.015,0.265,16.103c-1.408,2.471-3.737,4.004-6.924,4.559c-9.909,1.723-17.117-5.507-21.352-11.702
				c0.609,6.715-0.877,14.146-8.168,17.164C1204.49,908.088,1203.159,908.334,1201.822,908.334z"/>
			<path style="fill:#BD4A31;" d="M1165.779,931.348c-0.473,0-0.927-0.265-1.147-0.719l-25.997-53.787
				c-0.306-0.633-0.041-1.394,0.592-1.7c0.633-0.307,1.393-0.041,1.7,0.592l25.997,53.787c0.306,0.633,0.041,1.393-0.592,1.7
				C1166.154,931.308,1165.965,931.348,1165.779,931.348z"/>
		</g>
		<path style="fill:#007880;" d="M1172.336,1750.3l-9.738-437.611c0-175.478-94.163-236.517-242.458-236.517
			c-133.354,0-222.164,108.781-276.138,254.393c-46.653,125.811-67.286,279.079-68.119,413.488
			c-0.016,2.115,0.044,4.147,0.044,6.247H1172.336z"/>
		<path style="fill:#005459;" d="M653.391,1750.3l462.196,7.277c-116.301-38.079-290.119-151.849-337.54-342.861l-134.047-84.149
			c-46.119,124.374-66.776,286.197-68.047,419.734H653.391z"/>
		<path style="fill:#007880;" d="M830.933,1094.331c78.132,47.427,89.268,188.233,49.21,244.327l-222.945,166.086
			c142.938,77.932,240.894,84.065,228.928,147.546c17.845,67.65-43.759,122.762-77.865,118.592
			c-34.107-4.17-197.873-47.804-313.845-166.762C383.063,1489.902,654.529,1154.394,830.933,1094.331z"/>
		<path style="fill:#0E0E0E;" d="M886.132,1658.044c-0.372,0-0.748-0.036-1.126-0.11c-3.111-0.618-5.135-3.637-4.526-6.748l0,0
			c0.407-2.116,9.295-51.975-50.632-63.676c-45.284-8.841-170.057-74.878-175.346-77.685c-1.809-0.96-2.971-2.809-3.052-4.854
			c-0.082-2.046,0.931-3.98,2.658-5.081c1.231-0.784,123.487-78.886,159.47-121.069c2.062-2.418,5.692-2.708,8.111-0.644
			c2.417,2.062,2.706,5.693,0.643,8.11c-31.91,37.41-125.055,99.299-153.716,117.938c29.62,15.389,126.508,64.782,163.437,71.991
			c22.89,4.469,39.67,14.445,49.874,29.651c14.71,21.923,10.048,46.507,9.843,47.542
			C891.225,1656.148,888.821,1658.044,886.132,1658.044z"/>
		<g>
			<g>
				<path style="fill:#F7A594;" d="M897.527,1122.763c0,45.133,135.291,75.06,179.514,27.626
					c6.692-7.121,11.296-15.954,13.063-26.769l25.484-114.304L954.01,948.389l-4.818,14.937L897.527,1122.763z"/>
				<path style="fill:#D97661;" d="M1092.524,1107.839l25.484-114.304l-152.867-41.161
					C925.57,1070.142,1066.774,1164.224,1092.524,1107.839z"/>
			</g>
			<path style="fill:#F7A594;" d="M918.533,916.195c15.853,111.549,123.837,189.085,197.672,177.965
				s156.116-114.442,140.263-225.991c-15.853-111.549-104.354-191.227-197.672-177.965
				C965.478,703.467,902.68,804.646,918.533,916.195z"/>
			<path style="fill:#0E0E0E;" d="M1001.033,711.633c86.576-85.864,155.148-38.142,219.234,14.378
				c44.975,36.858,76.931,63.418,122.159,60.489c-60.784,124.688-244.525,91.724-320.98-2.976
				c8.114,61.703-52.218,127.577-102.913,132.672C887.685,852.336,904.36,705.842,1001.033,711.633z"/>
			
				<ellipse transform="matrix(0.7647 -0.6443 0.6443 0.7647 -367.869 819.3281)" style="fill:#F7A594;" cx="938.049" cy="913.422" rx="44.84" ry="44.84"/>
			<g>
				<path style="fill:#BD4A31;" d="M1152.26,1008.498c-9.988,0.001-21.841-6.088-23.593-7.017c-1.123-0.596-1.549-1.988-0.954-3.111
					c0.595-1.123,1.988-1.549,3.111-0.955c5.745,3.045,21.995,9.798,28.107,4.56c0.731-0.627,4.01-5.505-3.21-40.119
					c-3.874-18.569-8.869-36.481-8.919-36.66c-0.342-1.224,0.373-2.494,1.596-2.836c1.225-0.341,2.494,0.372,2.836,1.596
					c0.05,0.18,5.083,18.222,8.988,36.94c7.221,34.61,4.704,42.002,1.705,44.573
					C1159.355,1007.675,1155.933,1008.498,1152.26,1008.498z"/>
				<path style="fill:#0E0E0E;" d="M1076.635,917.781c-1.13,9.14-5.718,16.096-10.247,15.536c-4.529-0.56-7.284-8.424-6.153-17.564
					s5.718-16.096,10.247-15.536C1075.011,900.777,1077.765,908.641,1076.635,917.781z"/>
				<path style="fill:#0E0E0E;" d="M1221.87,939.385c-1.055,8.531-5.337,15.023-9.564,14.5c-4.227-0.523-6.798-7.862-5.743-16.393
					c1.055-8.531,5.337-15.023,9.564-14.5C1220.354,923.514,1222.925,930.854,1221.87,939.385z"/>
				<path style="fill:#803221;" d="M1053.529,1040.808c-0.819,0-1.612-0.438-2.028-1.21c-0.603-1.118-0.185-2.515,0.934-3.117
					c23.9-12.883,43.897-4.482,44.738-4.117c1.166,0.506,1.702,1.86,1.196,3.026c-0.504,1.165-1.856,1.701-3.022,1.198l0,0
					c-0.186-0.079-18.87-7.841-40.729,3.943C1054.272,1040.719,1053.898,1040.808,1053.529,1040.808z"/>
				<path style="fill:#803221;" d="M1038.098,894.583c-0.36,0-0.726-0.085-1.067-0.264c-1.125-0.591-1.559-1.982-0.969-3.107
					c0.121-0.23,12.41-22.964,40.798-18.173c1.253,0.211,2.098,1.398,1.886,2.652c-0.211,1.254-1.4,2.101-2.652,1.886
					c-25.135-4.238-35.852,15.573-35.957,15.774C1039.726,894.134,1038.926,894.583,1038.098,894.583z"/>
				<path style="fill:#803221;" d="M1234.973,925.718c-1.057,0-2.009-0.733-2.246-1.807c-3.365-15.284-16.387-18.876-16.939-19.022
					c-1.227-0.323-1.964-1.578-1.646-2.805c0.319-1.227,1.568-1.965,2.795-1.652c0.663,0.17,16.295,4.371,20.285,22.489
					c0.273,1.242-0.511,2.469-1.752,2.743C1235.303,925.701,1235.136,925.718,1234.973,925.718z"/>
			</g>
			<path style="fill:#BD4A31;" d="M960.993,938.037c-0.04,0-0.08-0.001-0.121-0.003c-1.27-0.066-2.245-1.148-2.18-2.417
				c0.451-8.724-1.708-15.756-6.417-20.902c-7.932-8.667-20.49-9.228-20.616-9.233c-1.27-0.047-2.262-1.115-2.215-2.385
				c0.047-1.27,1.12-2.253,2.385-2.215c0.593,0.022,14.624,0.652,23.841,10.725c5.573,6.089,8.136,14.247,7.619,24.247
				C963.226,937.083,962.209,938.037,960.993,938.037z"/>
		</g>
		<path style="fill:#005459;" d="M1277.796,1477.459c-34.877-1.908-73.314-9.928-112.003-21.254l-2.293-104.366
			C1163.499,1351.839,1209.702,1447.677,1277.796,1477.459z"/>
		<path style="fill:#F7A594;" d="M833.661,1754.442c-14.623-21.131-6.276-98.079,59.311-109.986
			c114.552-20.797,156.022,42.053,166.854,86.988c2.821,11.703-7.828,24.087-17.663,22.998c-9.835-1.089-16.754-6.645-18.44-15.561
			c-2.03-10.733-7.723-24.015-19.992-30.94c11.84,23.205,6.893,46.501-25.357,46.501H833.661z"/>
	</g>
	<g>
		<path d="M1069.23,476.173c-19.607,0-26.903,21.888-26.903,21.888l-23.255-10.714c0,0,10.944-37.164,50.158-37.164
			c27.363,0,48.567,20.297,48.567,45.603c0,20.061-10.49,29.644-25.312,42.632c-7.98,7.072-8.433,7.532-8.433,15.735v11.634h-27.133
			v-16.879c0-14.816,5.699-18.01,20.521-30.775c8.433-7.296,12.995-11.634,12.995-22.348
			C1090.435,485.073,1080.634,476.173,1069.23,476.173z M1070.598,579.237c10.037,0,18.016,7.98,18.016,18.01
			c0,10.03-7.98,18.01-18.016,18.01c-10.03,0-18.01-7.98-18.01-18.01C1052.588,587.216,1060.567,579.237,1070.598,579.237z"/>
	</g>
	<g>
		<path d="M775.67,603.218c-13.261,11.803-5.019,30.999-5.019,30.999l-22.178,6.753c0,0-14.971-31.722,11.551-55.329
			c18.506-16.472,45.066-15.51,60.299,1.605c12.077,13.567,10.751,26.364,8.545,44.071c-1.139,9.587-1.169,10.171,3.769,15.719
			l7.003,7.868l-18.35,16.334l-10.161-11.415c-8.919-10.02-6.988-15.611-4.648-33.167c1.311-10.011,1.785-15.691-4.665-22.937
			C795.368,596.471,783.383,596.352,775.67,603.218z M838.638,672.098c6.788-6.042,16.988-5.449,23.026,1.335
			c6.038,6.784,5.445,16.984-1.343,23.026c-6.784,6.038-16.984,5.445-23.022-1.339C831.262,688.336,831.855,678.136,838.638,672.098
			z"/>
	</g>
</g>
<g id="laptop">
	<g>
		<path style="fill:#4F4F4F;" d="M1880.955,1733.794c-6.619,6.49-16.037,9.546-25.328,9.546h-277.462
			c-7.765,0-14.253-6.364-14.253-14.256c0-7.891,6.488-14.255,14.253-14.255h279.115c2.417,0,3.819-1.4,4.456-2.292
			c0.637-0.763,1.653-2.545,1.143-4.962l-100.037-430.83l-21.509-92.528h-50.91v-29.655h60.966v0.253
			c6.873-0.508,13.237,3.819,14.89,10.691l16.547,71.276l107.675,464.175C1893.428,1712.537,1889.991,1725.011,1880.955,1733.794z"
			/>
		<path style="fill:#2E2E2E;" d="M1782.826,1236.781l-19.983,39.963l-21.509-92.528h-50.91v-29.655h60.966v0.253
			c6.873-0.508,13.237,3.819,14.89,10.691L1782.826,1236.781z"/>
		<g>
			<path style="fill:#4F4F4F;" d="M1206.216,1743.29h293.046c4.625,0,8.375-3.749,8.375-8.374v0c0-4.625-3.749-8.375-8.375-8.375
				h-293.046c-4.625,0-8.375,3.749-8.375,8.375v0C1197.842,1739.541,1201.591,1743.29,1206.216,1743.29z"/>
			<rect x="1215.173" y="1720.313" style="fill:#4F4F4F;" width="30.059" height="12.998"/>
			<rect x="1263.375" y="1720.313" style="fill:#4F4F4F;" width="30.059" height="12.998"/>
			<rect x="1311.578" y="1720.313" style="fill:#4F4F4F;" width="30.059" height="12.998"/>
			<rect x="1359.78" y="1720.313" style="fill:#4F4F4F;" width="30.059" height="12.998"/>
			<rect x="1407.983" y="1720.313" style="fill:#4F4F4F;" width="30.059" height="12.998"/>
			<rect x="1456.185" y="1720.313" style="fill:#4F4F4F;" width="30.059" height="12.998"/>
		</g>
		<g>
			<path style="fill:#4F4F4F;" d="M1867.426,687.888l-31.813-11.833l-351.606,945.278l31.813,11.833
				c4.583-5.449,9.008-11.017,13.383-16.623l338.22-928.432L1867.426,687.888z"/>
			<path style="fill:#2E2E2E;" d="M1529.203,1616.544c36.623-46.925,65.906-99.187,86.688-155.057l216.071-580.898
				c22.612-60.792,34.597-125.023,35.427-189.879l0.034-2.598L1529.203,1616.544z"/>
		</g>
	</g>
	<g>
		<path style="fill:#4F4F4F;" d="M1999.839,1733.794c6.619,6.49,16.037,9.546,25.328,9.546h277.462
			c7.765,0,14.253-6.364,14.253-14.256c0-7.891-6.488-14.255-14.253-14.255h-279.115c-2.417,0-3.819-1.4-4.456-2.292
			c-0.637-0.763-1.653-2.545-1.143-4.962l100.037-430.83l21.509-92.528h50.91v-29.655h-60.966v0.253
			c-6.873-0.508-13.237,3.819-14.89,10.691l-16.547,71.276l-107.675,464.175C1987.366,1712.537,1990.803,1725.011,1999.839,1733.794
			z"/>
		<path style="fill:#2E2E2E;" d="M2097.968,1236.781l19.983,39.963l21.509-92.528h50.91v-29.655h-60.966v0.253
			c-6.873-0.508-13.237,3.819-14.89,10.691L2097.968,1236.781z"/>
		<g>
			<path style="fill:#4F4F4F;" d="M2013.368,687.888l31.813-11.833l351.606,945.278l-31.813,11.833
				c-4.583-5.449-9.008-11.017-13.383-16.623l-338.22-928.432L2013.368,687.888z"/>
			<path style="fill:#2E2E2E;" d="M2351.591,1616.544c-36.623-46.925-65.906-99.187-86.688-155.057l-216.071-580.898
				c-22.612-60.792-34.597-125.023-35.427-189.879l-0.034-2.598L2351.591,1616.544z"/>
		</g>
	</g>
	<g>
		<path style="fill:#4F4F4F;" d="M2645.96,1743.29h-293.046c-4.625,0-8.375-3.749-8.375-8.374v0c0-4.625,3.749-8.375,8.375-8.375
			h293.046c4.625,0,8.375,3.749,8.375,8.375v0C2654.334,1739.541,2650.585,1743.29,2645.96,1743.29z"/>
		
			<rect x="2606.945" y="1720.313" transform="matrix(-1 -1.224647e-16 1.224647e-16 -1 5243.9478 3453.6238)" style="fill:#4F4F4F;" width="30.059" height="12.998"/>
		
			<rect x="2558.742" y="1720.313" transform="matrix(-1 -1.224647e-16 1.224647e-16 -1 5147.543 3453.6238)" style="fill:#4F4F4F;" width="30.059" height="12.998"/>
		
			<rect x="2510.54" y="1720.313" transform="matrix(-1 -1.224647e-16 1.224647e-16 -1 5051.1382 3453.6238)" style="fill:#4F4F4F;" width="30.059" height="12.998"/>
		
			<rect x="2462.337" y="1720.313" transform="matrix(-1 -1.224647e-16 1.224647e-16 -1 4954.7334 3453.6238)" style="fill:#4F4F4F;" width="30.059" height="12.998"/>
		
			<rect x="2414.135" y="1720.313" transform="matrix(-1 -1.224647e-16 1.224647e-16 -1 4858.3286 3453.6238)" style="fill:#4F4F4F;" width="30.059" height="12.998"/>
		
			<rect x="2365.933" y="1720.313" transform="matrix(-1 -1.224647e-16 1.224647e-16 -1 4761.9243 3453.6238)" style="fill:#4F4F4F;" width="30.059" height="12.998"/>
	</g>
	<path style="fill:#153566;" d="M3636.501,1757.222c0-7.667-6.215-13.882-13.882-13.882H2006.373
		c-9.023,0-16.335,6.215-16.335,13.882c0,7.666,7.312,13.882,16.335,13.882h1616.246
		C3630.286,1771.104,3636.501,1764.889,3636.501,1757.222L3636.501,1757.222z"/>
	<path style="fill:#153566;" d="M1891.52,1757.222c0-7.667-6.215-13.882-13.882-13.882H329.79c-9.023,0-16.335,6.215-16.335,13.882
		c0,7.666,7.312,13.882,16.335,13.882h1547.848C1885.305,1771.104,1891.52,1764.889,1891.52,1757.222L1891.52,1757.222z"/>
</g>
<g id="icons">
	<g>
		<path style="fill:#FFA534;" d="M1506.889,444.28l-126.076,218.37c-6.533,11.316,1.633,25.461,14.7,25.461h252.152
			c13.067,0,21.233-14.145,14.7-25.461l-126.076-218.37C1529.755,432.964,1513.422,432.964,1506.889,444.28z"/>
		<path d="M1647.665,677.324H1395.51c-2.272,0-4.223-1.13-5.354-3.099c-1.138-1.954-1.138-4.218,0.012-6.192l126.07-218.355
			c1.125-1.961,3.077-3.091,5.349-3.091c2.276,0,4.23,1.13,5.36,3.099l126.073,218.358c1.137,1.955,1.14,4.214,0,6.188
			C1651.895,676.194,1649.941,677.324,1647.665,677.324z M1396.391,671.641c0-0.001,0.001-0.002,0.002-0.003L1396.391,671.641z
			 M1397.263,670.13h248.656L1521.59,454.794L1397.263,670.13z"/>
		<g>
			<path d="M1521.954,610.711L1521.954,610.711c-7.238,0-13.24-5.604-13.736-12.826l-4.227-61.6
				c-0.714-10.405,7.534-19.239,17.964-19.239l0,0c10.43,0,18.678,8.833,17.964,19.239l-4.227,61.6
				C1535.194,605.107,1529.192,610.711,1521.954,610.711z"/>
			
				<ellipse transform="matrix(0.9239 -0.3827 0.3827 0.9239 -127.2283 630.7774)" cx="1521.954" cy="635.199" rx="13.587" ry="13.586"/>
		</g>
	</g>
	<g>
		<g>
			<path style="fill:#2C70D9;" d="M2347.953,556.38v129.979c0,14.444,176.736,14.444,176.736,0V556.38H2347.953z"/>
			<g>
				<circle style="fill:#001E4D;" cx="2436.321" cy="605.474" r="21.82"/>
				<path style="fill:#001E4D;" d="M2436.321,671.186L2436.321,671.186c-4.939,0-8.944-4.004-8.944-8.943v-50.046h17.887v50.046
					C2445.265,667.182,2441.26,671.186,2436.321,671.186z"/>
			</g>
			<path style="fill:#2C70D9;" d="M2509.202,548.58h-17.887v-44.946c0-30.324-24.67-54.994-54.994-54.994
				c-30.324,0-54.994,24.67-54.994,54.994v8.754h-17.887v-8.754c0-40.188,32.694-72.881,72.881-72.881
				c40.188,0,72.882,32.694,72.882,72.881V548.58z"/>
		</g>
		<g>
			<circle style="fill:#FFA534;" cx="2529.702" cy="681.44" r="60.092"/>
			<path d="M2529.702,733.434c-28.67,0-51.995-23.324-51.995-51.994c0-28.67,23.325-51.994,51.995-51.994
				c28.669,0,51.994,23.324,51.994,51.994C2581.696,710.11,2558.371,733.434,2529.702,733.434z M2529.702,633.758
				c-26.293,0-47.683,21.39-47.683,47.683c0,26.292,21.39,47.682,47.683,47.682c26.292,0,47.682-21.39,47.682-47.682
				C2577.384,655.148,2555.994,633.758,2529.702,633.758z"/>
			<g>
				<path d="M2529.702,700.067L2529.702,700.067c-3.822,0-6.992-2.959-7.253-6.773l-2.232-32.529
					c-0.377-5.495,3.978-10.159,9.486-10.159l0,0c5.508,0,9.863,4.665,9.486,10.159l-2.232,32.529
					C2536.694,697.107,2533.524,700.067,2529.702,700.067z"/>
				<circle cx="2529.702" cy="712.998" r="7.174"/>
			</g>
		</g>
	</g>
</g>
</svg>
